<mxfile host="app.diagrams.net" modified="2023-01-31T15:57:48.679Z" agent="5.0 (X11)" etag="9lE5xbj2ko5ZZkQLk6uO" version="20.8.13" type="github">
  <diagram name="Page-1" id="JBi5x4pVinOrZoTBTQoq">
    <mxGraphModel dx="2111" dy="2285" grid="1" gridSize="10" guides="1" tooltips="1" connect="1" arrows="1" fold="1" page="1" pageScale="1" pageWidth="850" pageHeight="1100" math="0" shadow="0">
      <root>
        <mxCell id="0" />
        <mxCell id="1" parent="0" />
        <mxCell id="hVUxj827XxSnQjQ6Rqo2-39" value="" style="endArrow=none;html=1;rounded=0;" edge="1" parent="1">
          <mxGeometry x="0.8576" y="445" width="50" height="50" relative="1" as="geometry">
            <mxPoint x="1249.4700000000003" y="647.5" as="sourcePoint" />
            <mxPoint x="1249.4700000000003" y="527.5" as="targetPoint" />
            <mxPoint as="offset" />
          </mxGeometry>
        </mxCell>
        <mxCell id="hVUxj827XxSnQjQ6Rqo2-2" value="" style="endArrow=none;html=1;rounded=0;" edge="1" parent="1">
          <mxGeometry x="0.8576" y="445" width="50" height="50" relative="1" as="geometry">
            <mxPoint x="-130" y="770" as="sourcePoint" />
            <mxPoint x="-130" y="650" as="targetPoint" />
            <mxPoint as="offset" />
          </mxGeometry>
        </mxCell>
        <mxCell id="hVUxj827XxSnQjQ6Rqo2-3" value="" style="endArrow=none;html=1;rounded=0;" edge="1" parent="1" source="hVUxj827XxSnQjQ6Rqo2-12">
          <mxGeometry width="50" height="50" relative="1" as="geometry">
            <mxPoint x="-60" y="667.39" as="sourcePoint" />
            <mxPoint x="10" y="667.3899999999999" as="targetPoint" />
          </mxGeometry>
        </mxCell>
        <mxCell id="hVUxj827XxSnQjQ6Rqo2-4" value="&lt;div&gt;Lin-Ops&lt;/div&gt;&lt;div&gt;10.50.24.211&lt;/div&gt;&lt;div&gt;password&lt;br&gt;&lt;/div&gt;" style="whiteSpace=wrap;html=1;aspect=fixed;" vertex="1" parent="1">
          <mxGeometry x="960" y="235" width="80" height="80" as="geometry" />
        </mxCell>
        <mxCell id="hVUxj827XxSnQjQ6Rqo2-5" value="10201" style="rounded=0;whiteSpace=wrap;html=1;dashed=1;" vertex="1" parent="1">
          <mxGeometry x="-160" y="920" width="50" height="30" as="geometry" />
        </mxCell>
        <mxCell id="hVUxj827XxSnQjQ6Rqo2-6" value="10.50.21.245" style="text;html=1;strokeColor=none;fillColor=none;align=center;verticalAlign=middle;whiteSpace=wrap;rounded=0;" vertex="1" parent="1">
          <mxGeometry x="500" y="655" width="60" height="30" as="geometry" />
        </mxCell>
        <mxCell id="hVUxj827XxSnQjQ6Rqo2-7" value="&lt;div&gt;Ports:&lt;/div&gt;&lt;div&gt;80&lt;br&gt;&lt;/div&gt;" style="whiteSpace=wrap;html=1;aspect=fixed;" vertex="1" parent="1">
          <mxGeometry x="-160" y="462.5" width="80" height="80" as="geometry" />
        </mxCell>
        <mxCell id="hVUxj827XxSnQjQ6Rqo2-8" value="" style="ellipse;whiteSpace=wrap;html=1;" vertex="1" parent="1">
          <mxGeometry x="-30" y="460" width="80" height="80" as="geometry" />
        </mxCell>
        <mxCell id="hVUxj827XxSnQjQ6Rqo2-9" value="192.168.0.0/24" style="text;html=1;strokeColor=none;fillColor=none;align=center;verticalAlign=middle;whiteSpace=wrap;rounded=0;" vertex="1" parent="1">
          <mxGeometry x="-20" y="485" width="60" height="30" as="geometry" />
        </mxCell>
        <mxCell id="hVUxj827XxSnQjQ6Rqo2-10" value="" style="endArrow=none;html=1;rounded=0;" edge="1" parent="1" target="hVUxj827XxSnQjQ6Rqo2-11">
          <mxGeometry width="50" height="50" relative="1" as="geometry">
            <mxPoint x="-80" y="502" as="sourcePoint" />
            <mxPoint x="10" y="502.5" as="targetPoint" />
          </mxGeometry>
        </mxCell>
        <mxCell id="hVUxj827XxSnQjQ6Rqo2-11" value=".30" style="rounded=0;whiteSpace=wrap;html=1;" vertex="1" parent="1">
          <mxGeometry x="-100" y="482.5" width="30" height="30" as="geometry" />
        </mxCell>
        <mxCell id="hVUxj827XxSnQjQ6Rqo2-12" value="&lt;div&gt;Ports:&lt;/div&gt;&lt;div&gt;80&lt;br&gt;&lt;/div&gt;" style="whiteSpace=wrap;html=1;aspect=fixed;" vertex="1" parent="1">
          <mxGeometry x="-170" y="630" width="80" height="80" as="geometry" />
        </mxCell>
        <mxCell id="hVUxj827XxSnQjQ6Rqo2-13" value="" style="endArrow=none;html=1;rounded=0;" edge="1" parent="1" target="hVUxj827XxSnQjQ6Rqo2-14">
          <mxGeometry width="50" height="50" relative="1" as="geometry">
            <mxPoint x="-90" y="667" as="sourcePoint" />
            <mxPoint y="667.5" as="targetPoint" />
          </mxGeometry>
        </mxCell>
        <mxCell id="hVUxj827XxSnQjQ6Rqo2-14" value=".40" style="rounded=0;whiteSpace=wrap;html=1;" vertex="1" parent="1">
          <mxGeometry x="-110" y="647.5" width="30" height="30" as="geometry" />
        </mxCell>
        <mxCell id="hVUxj827XxSnQjQ6Rqo2-15" value="" style="endArrow=none;html=1;rounded=0;startArrow=none;" edge="1" parent="1" source="hVUxj827XxSnQjQ6Rqo2-17">
          <mxGeometry x="0.8576" y="445" width="50" height="50" relative="1" as="geometry">
            <mxPoint x="-130" y="990" as="sourcePoint" />
            <mxPoint x="-130" y="870" as="targetPoint" />
            <mxPoint as="offset" />
          </mxGeometry>
        </mxCell>
        <mxCell id="hVUxj827XxSnQjQ6Rqo2-16" value="Ports:&lt;br&gt;21,22,80" style="whiteSpace=wrap;html=1;aspect=fixed;" vertex="1" parent="1">
          <mxGeometry x="-170" y="790" width="80" height="80" as="geometry" />
        </mxCell>
        <mxCell id="hVUxj827XxSnQjQ6Rqo2-17" value=".50" style="rounded=0;whiteSpace=wrap;html=1;" vertex="1" parent="1">
          <mxGeometry x="-145" y="770" width="30" height="30" as="geometry" />
        </mxCell>
        <mxCell id="hVUxj827XxSnQjQ6Rqo2-18" value="10307" style="rounded=0;whiteSpace=wrap;html=1;dashed=1;" vertex="1" parent="1">
          <mxGeometry x="-165" y="602.5" width="70" height="40" as="geometry" />
        </mxCell>
        <mxCell id="hVUxj827XxSnQjQ6Rqo2-19" value="" style="ellipse;shape=cloud;whiteSpace=wrap;html=1;" vertex="1" parent="1">
          <mxGeometry x="330" y="640" width="120" height="80" as="geometry" />
        </mxCell>
        <mxCell id="hVUxj827XxSnQjQ6Rqo2-24" value="10211" style="rounded=0;whiteSpace=wrap;html=1;dashed=1;" vertex="1" parent="1">
          <mxGeometry x="560" y="310" width="50" height="30" as="geometry" />
        </mxCell>
        <mxCell id="hVUxj827XxSnQjQ6Rqo2-25" value="" style="curved=1;endArrow=classic;html=1;rounded=0;" edge="1" parent="1">
          <mxGeometry width="50" height="50" relative="1" as="geometry">
            <mxPoint x="220" y="640" as="sourcePoint" />
            <mxPoint x="530" y="630" as="targetPoint" />
            <Array as="points">
              <mxPoint x="270" y="640" />
              <mxPoint x="220" y="590" />
            </Array>
          </mxGeometry>
        </mxCell>
        <mxCell id="hVUxj827XxSnQjQ6Rqo2-26" value="ssh net1_student2@10.50.21.245 -L 10211:localhost:22 -NT" style="text;html=1;strokeColor=none;fillColor=none;align=center;verticalAlign=middle;whiteSpace=wrap;rounded=0;" vertex="1" parent="1">
          <mxGeometry x="225" y="560" width="430" height="30" as="geometry" />
        </mxCell>
        <mxCell id="hVUxj827XxSnQjQ6Rqo2-27" value="" style="endArrow=none;html=1;rounded=0;startArrow=none;" edge="1" parent="1" source="hVUxj827XxSnQjQ6Rqo2-32">
          <mxGeometry width="50" height="50" relative="1" as="geometry">
            <mxPoint x="-574.9999999999995" y="250" as="sourcePoint" />
            <mxPoint x="185.00000000000045" y="249.23000000000002" as="targetPoint" />
          </mxGeometry>
        </mxCell>
        <mxCell id="hVUxj827XxSnQjQ6Rqo2-28" value="&lt;div&gt;Ports:&lt;/div&gt;&lt;div&gt;7777&lt;br&gt;&lt;/div&gt;&lt;div&gt;&lt;br&gt;&lt;/div&gt;" style="whiteSpace=wrap;html=1;aspect=fixed;" vertex="1" parent="1">
          <mxGeometry x="125" y="250" width="120" height="120" as="geometry" />
        </mxCell>
        <mxCell id="hVUxj827XxSnQjQ6Rqo2-29" value=".177" style="rounded=0;whiteSpace=wrap;html=1;" vertex="1" parent="1">
          <mxGeometry x="170" y="235" width="30" height="30" as="geometry" />
        </mxCell>
        <mxCell id="hVUxj827XxSnQjQ6Rqo2-31" value="ssh -p 7777 net1_student2@10.50.23.177" style="text;html=1;strokeColor=none;fillColor=none;align=center;verticalAlign=middle;whiteSpace=wrap;rounded=0;" vertex="1" parent="1">
          <mxGeometry x="90" y="370" width="430" height="30" as="geometry" />
        </mxCell>
        <mxCell id="hVUxj827XxSnQjQ6Rqo2-32" value="10.2.2.6/28" style="ellipse;whiteSpace=wrap;html=1;" vertex="1" parent="1">
          <mxGeometry x="145" y="20" width="80" height="80" as="geometry" />
        </mxCell>
        <mxCell id="hVUxj827XxSnQjQ6Rqo2-33" value="" style="endArrow=none;html=1;rounded=0;startArrow=none;" edge="1" parent="1">
          <mxGeometry width="50" height="50" relative="1" as="geometry">
            <mxPoint x="1210" y="275.23" as="sourcePoint" />
            <mxPoint x="1040.0000000000005" y="274.47" as="targetPoint" />
          </mxGeometry>
        </mxCell>
        <mxCell id="hVUxj827XxSnQjQ6Rqo2-34" value="&lt;div&gt;Jump&lt;/div&gt;&lt;div&gt;10.50.27.211&lt;/div&gt;&lt;div&gt;Temp1234&lt;br&gt;&lt;/div&gt;" style="whiteSpace=wrap;html=1;aspect=fixed;" vertex="1" parent="1">
          <mxGeometry x="1210" y="235" width="80" height="80" as="geometry" />
        </mxCell>
        <mxCell id="hVUxj827XxSnQjQ6Rqo2-35" value="" style="endArrow=none;html=1;rounded=0;" edge="1" parent="1">
          <mxGeometry x="0.8576" y="445" width="50" height="50" relative="1" as="geometry">
            <mxPoint x="1249.47" y="435" as="sourcePoint" />
            <mxPoint x="1249.47" y="315" as="targetPoint" />
            <mxPoint as="offset" />
          </mxGeometry>
        </mxCell>
        <mxCell id="hVUxj827XxSnQjQ6Rqo2-46" style="edgeStyle=orthogonalEdgeStyle;rounded=0;orthogonalLoop=1;jettySize=auto;html=1;" edge="1" parent="1" source="hVUxj827XxSnQjQ6Rqo2-36" target="hVUxj827XxSnQjQ6Rqo2-43">
          <mxGeometry relative="1" as="geometry" />
        </mxCell>
        <mxCell id="hVUxj827XxSnQjQ6Rqo2-47" style="edgeStyle=orthogonalEdgeStyle;rounded=0;orthogonalLoop=1;jettySize=auto;html=1;" edge="1" parent="1" source="hVUxj827XxSnQjQ6Rqo2-36" target="hVUxj827XxSnQjQ6Rqo2-44">
          <mxGeometry relative="1" as="geometry" />
        </mxCell>
        <mxCell id="hVUxj827XxSnQjQ6Rqo2-48" style="edgeStyle=orthogonalEdgeStyle;rounded=0;orthogonalLoop=1;jettySize=auto;html=1;entryX=0.5;entryY=0;entryDx=0;entryDy=0;" edge="1" parent="1" source="hVUxj827XxSnQjQ6Rqo2-36" target="hVUxj827XxSnQjQ6Rqo2-45">
          <mxGeometry relative="1" as="geometry" />
        </mxCell>
        <mxCell id="hVUxj827XxSnQjQ6Rqo2-49" style="edgeStyle=orthogonalEdgeStyle;rounded=0;orthogonalLoop=1;jettySize=auto;html=1;entryX=0.5;entryY=0;entryDx=0;entryDy=0;" edge="1" parent="1" source="hVUxj827XxSnQjQ6Rqo2-36" target="hVUxj827XxSnQjQ6Rqo2-42">
          <mxGeometry relative="1" as="geometry" />
        </mxCell>
        <mxCell id="hVUxj827XxSnQjQ6Rqo2-50" style="edgeStyle=orthogonalEdgeStyle;rounded=0;orthogonalLoop=1;jettySize=auto;html=1;entryX=0.5;entryY=0;entryDx=0;entryDy=0;" edge="1" parent="1" source="hVUxj827XxSnQjQ6Rqo2-36" target="hVUxj827XxSnQjQ6Rqo2-41">
          <mxGeometry relative="1" as="geometry">
            <mxPoint x="1530" y="550" as="targetPoint" />
          </mxGeometry>
        </mxCell>
        <mxCell id="hVUxj827XxSnQjQ6Rqo2-51" style="edgeStyle=orthogonalEdgeStyle;rounded=0;orthogonalLoop=1;jettySize=auto;html=1;entryX=0.5;entryY=0;entryDx=0;entryDy=0;" edge="1" parent="1" source="hVUxj827XxSnQjQ6Rqo2-36" target="hVUxj827XxSnQjQ6Rqo2-40">
          <mxGeometry relative="1" as="geometry" />
        </mxCell>
        <mxCell id="hVUxj827XxSnQjQ6Rqo2-36" value="192.168.28.96/27" style="ellipse;whiteSpace=wrap;html=1;" vertex="1" parent="1">
          <mxGeometry x="1200" y="432.5" width="100" height="97.5" as="geometry" />
        </mxCell>
        <mxCell id="hVUxj827XxSnQjQ6Rqo2-38" value="&lt;div&gt;.100&lt;/div&gt;&lt;div&gt;Ports:&lt;br&gt;&lt;/div&gt;2222" style="whiteSpace=wrap;html=1;aspect=fixed;" vertex="1" parent="1">
          <mxGeometry x="1210" y="642.5" width="80" height="80" as="geometry" />
        </mxCell>
        <mxCell id="hVUxj827XxSnQjQ6Rqo2-40" value="&lt;div&gt;.120&lt;/div&gt;&lt;div&gt;Ports:&lt;/div&gt;&lt;div&gt;4242&lt;/div&gt;&lt;div&gt;student&lt;/div&gt;&lt;div&gt;YourTempPassword&lt;br&gt;&lt;/div&gt;" style="whiteSpace=wrap;html=1;aspect=fixed;" vertex="1" parent="1">
          <mxGeometry x="1570" y="642.5" width="80" height="80" as="geometry" />
        </mxCell>
        <mxCell id="hVUxj827XxSnQjQ6Rqo2-41" value="&lt;div&gt;.111&lt;/div&gt;&lt;div&gt;Ports:&lt;/div&gt;&lt;div&gt;80,2222,8080&lt;br&gt;&lt;/div&gt;" style="whiteSpace=wrap;html=1;aspect=fixed;" vertex="1" parent="1">
          <mxGeometry x="1450" y="642.5" width="80" height="80" as="geometry" />
        </mxCell>
        <mxCell id="hVUxj827XxSnQjQ6Rqo2-42" value="&lt;div&gt;.105&lt;/div&gt;&lt;div&gt;Ports:&lt;/div&gt;&lt;div&gt;21,23,2222&lt;br&gt;&lt;/div&gt;" style="whiteSpace=wrap;html=1;aspect=fixed;" vertex="1" parent="1">
          <mxGeometry x="1330" y="642.5" width="80" height="80" as="geometry" />
        </mxCell>
        <mxCell id="hVUxj827XxSnQjQ6Rqo2-43" value=".97" style="whiteSpace=wrap;html=1;aspect=fixed;" vertex="1" parent="1">
          <mxGeometry x="850" y="642.5" width="80" height="80" as="geometry" />
        </mxCell>
        <mxCell id="hVUxj827XxSnQjQ6Rqo2-44" value="&lt;div&gt;.98&lt;/div&gt;&lt;div&gt;Ports:&lt;/div&gt;&lt;div&gt;53&lt;br&gt;&lt;/div&gt;" style="whiteSpace=wrap;html=1;aspect=fixed;" vertex="1" parent="1">
          <mxGeometry x="970" y="642.5" width="80" height="80" as="geometry" />
        </mxCell>
        <mxCell id="hVUxj827XxSnQjQ6Rqo2-45" value="&lt;div&gt;.99&lt;/div&gt;&lt;div&gt;Ports:&lt;/div&gt;&lt;div&gt;53&lt;br&gt;&lt;/div&gt;" style="whiteSpace=wrap;html=1;aspect=fixed;" vertex="1" parent="1">
          <mxGeometry x="1090" y="642.5" width="80" height="80" as="geometry" />
        </mxCell>
        <mxCell id="hVUxj827XxSnQjQ6Rqo2-52" value=".227" style="whiteSpace=wrap;html=1;aspect=fixed;" vertex="1" parent="1">
          <mxGeometry x="1210" y="-180" width="80" height="80" as="geometry" />
        </mxCell>
        <mxCell id="hVUxj827XxSnQjQ6Rqo2-53" value=".253" style="whiteSpace=wrap;html=1;aspect=fixed;" vertex="1" parent="1">
          <mxGeometry x="1450" y="-180" width="80" height="80" as="geometry" />
        </mxCell>
        <mxCell id="hVUxj827XxSnQjQ6Rqo2-54" value=".245" style="whiteSpace=wrap;html=1;aspect=fixed;" vertex="1" parent="1">
          <mxGeometry x="1330" y="-180" width="80" height="80" as="geometry" />
        </mxCell>
        <mxCell id="hVUxj827XxSnQjQ6Rqo2-55" value=".225" style="whiteSpace=wrap;html=1;aspect=fixed;" vertex="1" parent="1">
          <mxGeometry x="970" y="-180" width="80" height="80" as="geometry" />
        </mxCell>
        <mxCell id="hVUxj827XxSnQjQ6Rqo2-56" value=".226" style="whiteSpace=wrap;html=1;aspect=fixed;" vertex="1" parent="1">
          <mxGeometry x="1090" y="-180" width="80" height="80" as="geometry" />
        </mxCell>
        <mxCell id="hVUxj827XxSnQjQ6Rqo2-57" value="" style="endArrow=none;html=1;rounded=0;" edge="1" parent="1">
          <mxGeometry x="0.8576" y="445" width="50" height="50" relative="1" as="geometry">
            <mxPoint x="1249.4700000000003" y="235" as="sourcePoint" />
            <mxPoint x="1249.4700000000003" y="115" as="targetPoint" />
            <mxPoint as="offset" />
          </mxGeometry>
        </mxCell>
        <mxCell id="hVUxj827XxSnQjQ6Rqo2-60" style="edgeStyle=orthogonalEdgeStyle;rounded=0;orthogonalLoop=1;jettySize=auto;html=1;entryX=0.5;entryY=1;entryDx=0;entryDy=0;" edge="1" parent="1" source="hVUxj827XxSnQjQ6Rqo2-58" target="hVUxj827XxSnQjQ6Rqo2-54">
          <mxGeometry relative="1" as="geometry" />
        </mxCell>
        <mxCell id="hVUxj827XxSnQjQ6Rqo2-61" style="edgeStyle=orthogonalEdgeStyle;rounded=0;orthogonalLoop=1;jettySize=auto;html=1;entryX=0.5;entryY=1;entryDx=0;entryDy=0;" edge="1" parent="1" source="hVUxj827XxSnQjQ6Rqo2-58" target="hVUxj827XxSnQjQ6Rqo2-53">
          <mxGeometry relative="1" as="geometry" />
        </mxCell>
        <mxCell id="hVUxj827XxSnQjQ6Rqo2-62" style="edgeStyle=orthogonalEdgeStyle;rounded=0;orthogonalLoop=1;jettySize=auto;html=1;entryX=0.5;entryY=1;entryDx=0;entryDy=0;" edge="1" parent="1" source="hVUxj827XxSnQjQ6Rqo2-58" target="hVUxj827XxSnQjQ6Rqo2-56">
          <mxGeometry relative="1" as="geometry" />
        </mxCell>
        <mxCell id="hVUxj827XxSnQjQ6Rqo2-63" style="edgeStyle=orthogonalEdgeStyle;rounded=0;orthogonalLoop=1;jettySize=auto;html=1;entryX=0.5;entryY=1;entryDx=0;entryDy=0;" edge="1" parent="1" source="hVUxj827XxSnQjQ6Rqo2-58" target="hVUxj827XxSnQjQ6Rqo2-55">
          <mxGeometry relative="1" as="geometry" />
        </mxCell>
        <mxCell id="hVUxj827XxSnQjQ6Rqo2-58" value="192.168.28.96/27" style="ellipse;whiteSpace=wrap;html=1;" vertex="1" parent="1">
          <mxGeometry x="1200" y="20" width="100" height="97.5" as="geometry" />
        </mxCell>
        <mxCell id="hVUxj827XxSnQjQ6Rqo2-59" value="" style="endArrow=none;html=1;rounded=0;" edge="1" parent="1">
          <mxGeometry x="0.8576" y="445" width="50" height="50" relative="1" as="geometry">
            <mxPoint x="1249.4700000000003" y="20" as="sourcePoint" />
            <mxPoint x="1249.4700000000003" y="-100" as="targetPoint" />
            <mxPoint as="offset" />
          </mxGeometry>
        </mxCell>
        <mxCell id="hVUxj827XxSnQjQ6Rqo2-64" value="" style="endArrow=none;html=1;rounded=0;startArrow=none;" edge="1" parent="1">
          <mxGeometry width="50" height="50" relative="1" as="geometry">
            <mxPoint x="1800" y="274" as="sourcePoint" />
            <mxPoint x="1290.0000000000005" y="274.47000000000025" as="targetPoint" />
          </mxGeometry>
        </mxCell>
        <mxCell id="hVUxj827XxSnQjQ6Rqo2-65" value="&lt;div&gt;10.100.28.40&lt;/div&gt;&lt;div&gt;Ports:&lt;/div&gt;&lt;div&gt;80,4444&lt;br&gt;&lt;/div&gt;" style="whiteSpace=wrap;html=1;aspect=fixed;" vertex="1" parent="1">
          <mxGeometry x="1800" y="235" width="80" height="80" as="geometry" />
        </mxCell>
        <mxCell id="hVUxj827XxSnQjQ6Rqo2-66" value="" style="endArrow=none;html=1;rounded=0;startArrow=none;" edge="1" parent="1">
          <mxGeometry width="50" height="50" relative="1" as="geometry">
            <mxPoint x="2050" y="275.23" as="sourcePoint" />
            <mxPoint x="1880.0000000000005" y="274.47000000000025" as="targetPoint" />
          </mxGeometry>
        </mxCell>
        <mxCell id="hVUxj827XxSnQjQ6Rqo2-67" value="&lt;div&gt;10.100.28.55&lt;/div&gt;" style="whiteSpace=wrap;html=1;aspect=fixed;" vertex="1" parent="1">
          <mxGeometry x="2045" y="235" width="80" height="80" as="geometry" />
        </mxCell>
        <mxCell id="hVUxj827XxSnQjQ6Rqo2-68" value="" style="rounded=0;whiteSpace=wrap;html=1;" vertex="1" parent="1">
          <mxGeometry x="1780" y="315" width="120" height="60" as="geometry" />
        </mxCell>
      </root>
    </mxGraphModel>
  </diagram>
</mxfile>
